# xmcd
#
# Track frame offsets: 
#        183
#        19048
#        39445
#        57878
#        72545
#        90900
#        106925
#        124850
#        144200
#        164780
#        188178
#        209720
#        225290
#
# Disc length: 3249 seconds
#
# Revision: 0
# Processed by: cddbd v1.5.2PL0 Copyright (c) Steve Scherf et al.
# Submitted via: ExactAudioCopyFreeDBPlugin 1.0
#
DISCID=af0caf0d
DTITLE=多位演出者 - 國語金曲
DYEAR=1900
DGENRE=
TTITLE0=蘇芮 - 再回首
TTITLE1=王傑 - 惦記這一些
TTITLE2=姜育恒 - 驛動的心
TTITLE3=蔡琴 - 相思河畔
TTITLE4=黄露儀 - 留不住的故事
TTITLE5=娃娃 - 距離
TTITLE6=李壽全 - 張三的歌
TTITLE7=王傑 - 一場遊戲一場夢
TTITLE8=王芷蕾 - 悲歡歲月
TTITLE9=王傑、葉歡 - 你是我胸口永遠的痛
TTITLE10=姜育恒 - 一世情綠
TTITLE11=蔡琴 - 天天天天
TTITLE12=娃娃 - 有誰能夠
EXTD=
EXTT0=
EXTT1=
EXTT2=
EXTT3=
EXTT4=
EXTT5=
EXTT6=
EXTT7=
EXTT8=
EXTT9=
EXTT10=
EXTT11=
EXTT12=
PLAYORDER=
